<?xml version="1.0" encoding="UTF-8" standalone="no"?>
<!DOCTYPE svg PUBLIC "-//W3C//DTD SVG 1.1//EN"
 "http://www.w3.org/Graphics/SVG/1.1/DTD/svg11.dtd">
<!-- Generated by graphviz version 2.47.3 (20210619.1520)
 -->
<!-- Title: dependencies Pages: 1 -->
<svg width="316pt" height="174pt"
 viewBox="0.00 0.00 316.00 173.80" xmlns="http://www.w3.org/2000/svg" xmlns:xlink="http://www.w3.org/1999/xlink">
<g id="graph0" class="graph" transform="scale(1 1) rotate(0) translate(4 169.8)">
<title>dependencies</title>
<polygon fill="white" stroke="transparent" points="-4,4 -4,-169.8 312,-169.8 312,4 -4,4"/>
<text text-anchor="middle" x="154" y="-8.2" font-family="sans-serif" font-size="14.00">dependencies</text>
<g id="clust1" class="cluster">
<title>cluster_ProductsModule</title>
<polygon fill="none" stroke="black" stroke-dasharray="1,5" points="8,-32.8 8,-157.8 300,-157.8 300,-32.8 8,-32.8"/>
</g>
<g id="clust6" class="cluster">
<title>cluster_ProductsModule_providers</title>
<polygon fill="none" stroke="black" points="128,-40.8 128,-92.8 292,-92.8 292,-40.8 128,-40.8"/>
</g>
<g id="clust3" class="cluster">
<title>cluster_ProductsModule_imports</title>
<polygon fill="none" stroke="black" points="16,-40.8 16,-92.8 120,-92.8 120,-40.8 16,-40.8"/>
</g>
<!-- AuthModule -->
<g id="node1" class="node">
<title>AuthModule</title>
<polygon fill="#8dd3c7" stroke="black" points="111.55,-84.8 108.55,-88.8 87.55,-88.8 84.55,-84.8 24.45,-84.8 24.45,-48.8 111.55,-48.8 111.55,-84.8"/>
<text text-anchor="middle" x="68" y="-62.6" font-family="Times,serif" font-size="14.00">AuthModule</text>
</g>
<!-- ProductsModule -->
<g id="node2" class="node">
<title>ProductsModule</title>
<polygon fill="#8dd3c7" stroke="black" points="194.04,-149.8 191.04,-153.8 170.04,-153.8 167.04,-149.8 85.96,-149.8 85.96,-113.8 194.04,-113.8 194.04,-149.8"/>
<text text-anchor="middle" x="140" y="-127.6" font-family="Times,serif" font-size="14.00">ProductsModule</text>
</g>
<!-- AuthModule&#45;&gt;ProductsModule -->
<g id="edge1" class="edge">
<title>AuthModule&#45;&gt;ProductsModule</title>
<path fill="none" stroke="black" d="M98.75,-84.91C98.75,-84.91 98.75,-103.79 98.75,-103.79"/>
<polygon fill="black" stroke="black" points="95.25,-103.79 98.75,-113.79 102.25,-103.79 95.25,-103.79"/>
</g>
<!-- ProductsService -->
<g id="node3" class="node">
<title>ProductsService</title>
<ellipse fill="#fdb462" stroke="black" cx="210" cy="-66.8" rx="73.57" ry="18"/>
<text text-anchor="middle" x="210" y="-62.6" font-family="Times,serif" font-size="14.00">ProductsService</text>
</g>
<!-- ProductsService&#45;&gt;ProductsModule -->
<g id="edge2" class="edge">
<title>ProductsService&#45;&gt;ProductsModule</title>
<path fill="none" stroke="black" d="M165.24,-81.23C165.24,-81.23 165.24,-103.69 165.24,-103.69"/>
<polygon fill="black" stroke="black" points="161.74,-103.69 165.24,-113.69 168.74,-103.69 161.74,-103.69"/>
</g>
</g>
</svg>
