<?xml version="1.0" encoding="UTF-8" standalone="no"?>
<!DOCTYPE svg PUBLIC "-//W3C//DTD SVG 1.1//EN"
 "http://www.w3.org/Graphics/SVG/1.1/DTD/svg11.dtd">
<!-- Generated by graphviz version 2.47.3 (20210619.1520)
 -->
<!-- Title: dependencies Pages: 1 -->
<svg width="300pt" height="174pt"
 viewBox="0.00 0.00 300.00 173.80" xmlns="http://www.w3.org/2000/svg" xmlns:xlink="http://www.w3.org/1999/xlink">
<g id="graph0" class="graph" transform="scale(1 1) rotate(0) translate(4 169.8)">
<title>dependencies</title>
<polygon fill="white" stroke="transparent" points="-4,4 -4,-169.8 296,-169.8 296,4 -4,4"/>
<text text-anchor="middle" x="146" y="-8.2" font-family="sans-serif" font-size="14.00">dependencies</text>
<g id="clust1" class="cluster">
<title>cluster_OrdersModule</title>
<polygon fill="none" stroke="black" stroke-dasharray="1,5" points="8,-32.8 8,-157.8 284,-157.8 284,-32.8 8,-32.8"/>
</g>
<g id="clust3" class="cluster">
<title>cluster_OrdersModule_imports</title>
<polygon fill="none" stroke="black" points="172,-40.8 172,-92.8 276,-92.8 276,-40.8 172,-40.8"/>
</g>
<g id="clust6" class="cluster">
<title>cluster_OrdersModule_providers</title>
<polygon fill="none" stroke="black" points="16,-40.8 16,-92.8 164,-92.8 164,-40.8 16,-40.8"/>
</g>
<!-- AuthModule -->
<g id="node1" class="node">
<title>AuthModule</title>
<polygon fill="#8dd3c7" stroke="black" points="267.55,-84.8 264.55,-88.8 243.55,-88.8 240.55,-84.8 180.45,-84.8 180.45,-48.8 267.55,-48.8 267.55,-84.8"/>
<text text-anchor="middle" x="224" y="-62.6" font-family="Times,serif" font-size="14.00">AuthModule</text>
</g>
<!-- OrdersModule -->
<g id="node2" class="node">
<title>OrdersModule</title>
<polygon fill="#8dd3c7" stroke="black" points="205.64,-149.8 202.64,-153.8 181.64,-153.8 178.64,-149.8 108.36,-149.8 108.36,-113.8 205.64,-113.8 205.64,-149.8"/>
<text text-anchor="middle" x="157" y="-127.6" font-family="Times,serif" font-size="14.00">OrdersModule</text>
</g>
<!-- AuthModule&#45;&gt;OrdersModule -->
<g id="edge1" class="edge">
<title>AuthModule&#45;&gt;OrdersModule</title>
<path fill="none" stroke="black" d="M193.02,-84.91C193.02,-84.91 193.02,-103.79 193.02,-103.79"/>
<polygon fill="black" stroke="black" points="189.52,-103.79 193.02,-113.79 196.52,-103.79 189.52,-103.79"/>
</g>
<!-- OrdersService -->
<g id="node3" class="node">
<title>OrdersService</title>
<ellipse fill="#fdb462" stroke="black" cx="90" cy="-66.8" rx="66.03" ry="18"/>
<text text-anchor="middle" x="90" y="-62.6" font-family="Times,serif" font-size="14.00">OrdersService</text>
</g>
<!-- OrdersService&#45;&gt;OrdersModule -->
<g id="edge2" class="edge">
<title>OrdersService&#45;&gt;OrdersModule</title>
<path fill="none" stroke="black" d="M132.22,-80.9C132.22,-80.9 132.22,-103.52 132.22,-103.52"/>
<polygon fill="black" stroke="black" points="128.72,-103.52 132.22,-113.52 135.72,-103.52 128.72,-103.52"/>
</g>
</g>
</svg>
