<?xml version="1.0" encoding="UTF-8" standalone="no"?>
<!DOCTYPE svg PUBLIC "-//W3C//DTD SVG 1.1//EN"
 "http://www.w3.org/Graphics/SVG/1.1/DTD/svg11.dtd">
<!-- Generated by graphviz version 2.47.3 (20210619.1520)
 -->
<!-- Title: dependencies Pages: 1 -->
<svg width="378pt" height="174pt"
 viewBox="0.00 0.00 378.00 173.80" xmlns="http://www.w3.org/2000/svg" xmlns:xlink="http://www.w3.org/1999/xlink">
<g id="graph0" class="graph" transform="scale(1 1) rotate(0) translate(4 169.8)">
<title>dependencies</title>
<polygon fill="white" stroke="transparent" points="-4,4 -4,-169.8 374,-169.8 374,4 -4,4"/>
<text text-anchor="middle" x="185" y="-8.2" font-family="sans-serif" font-size="14.00">dependencies</text>
<g id="clust1" class="cluster">
<title>cluster_DeliveryAddressModule</title>
<polygon fill="none" stroke="black" stroke-dasharray="1,5" points="8,-32.8 8,-157.8 362,-157.8 362,-32.8 8,-32.8"/>
</g>
<g id="clust3" class="cluster">
<title>cluster_DeliveryAddressModule_imports</title>
<polygon fill="none" stroke="black" points="250,-40.8 250,-92.8 354,-92.8 354,-40.8 250,-40.8"/>
</g>
<g id="clust6" class="cluster">
<title>cluster_DeliveryAddressModule_providers</title>
<polygon fill="none" stroke="black" points="16,-40.8 16,-92.8 242,-92.8 242,-40.8 16,-40.8"/>
</g>
<!-- AuthModule -->
<g id="node1" class="node">
<title>AuthModule</title>
<polygon fill="#8dd3c7" stroke="black" points="345.55,-84.8 342.55,-88.8 321.55,-88.8 318.55,-84.8 258.45,-84.8 258.45,-48.8 345.55,-48.8 345.55,-84.8"/>
<text text-anchor="middle" x="302" y="-62.6" font-family="Times,serif" font-size="14.00">AuthModule</text>
</g>
<!-- DeliveryAddressModule -->
<g id="node2" class="node">
<title>DeliveryAddressModule</title>
<polygon fill="#8dd3c7" stroke="black" points="280.4,-149.8 277.4,-153.8 256.4,-153.8 253.4,-149.8 125.6,-149.8 125.6,-113.8 280.4,-113.8 280.4,-149.8"/>
<text text-anchor="middle" x="203" y="-127.6" font-family="Times,serif" font-size="14.00">DeliveryAddressModule</text>
</g>
<!-- AuthModule&#45;&gt;DeliveryAddressModule -->
<g id="edge1" class="edge">
<title>AuthModule&#45;&gt;DeliveryAddressModule</title>
<path fill="none" stroke="black" d="M269.21,-84.91C269.21,-84.91 269.21,-103.79 269.21,-103.79"/>
<polygon fill="black" stroke="black" points="265.71,-103.79 269.21,-113.79 272.71,-103.79 265.71,-103.79"/>
</g>
<!-- DeliveryAddressService -->
<g id="node3" class="node">
<title>DeliveryAddressService</title>
<ellipse fill="#fdb462" stroke="black" cx="129" cy="-66.8" rx="105.33" ry="18"/>
<text text-anchor="middle" x="129" y="-62.6" font-family="Times,serif" font-size="14.00">DeliveryAddressService</text>
</g>
<!-- DeliveryAddressService&#45;&gt;DeliveryAddressModule -->
<g id="edge2" class="edge">
<title>DeliveryAddressService&#45;&gt;DeliveryAddressModule</title>
<path fill="none" stroke="black" d="M180.11,-82.87C180.11,-82.87 180.11,-103.62 180.11,-103.62"/>
<polygon fill="black" stroke="black" points="176.61,-103.62 180.11,-113.62 183.61,-103.62 176.61,-103.62"/>
</g>
</g>
</svg>
