<?xml version="1.0" encoding="UTF-8" standalone="no"?>
<!DOCTYPE svg PUBLIC "-//W3C//DTD SVG 1.1//EN"
 "http://www.w3.org/Graphics/SVG/1.1/DTD/svg11.dtd">
<!-- Generated by graphviz version 2.47.3 (20210619.1520)
 -->
<!-- Title: dependencies Pages: 1 -->
<svg width="825pt" height="174pt"
 viewBox="0.00 0.00 825.00 173.80" xmlns="http://www.w3.org/2000/svg" xmlns:xlink="http://www.w3.org/1999/xlink">
<g id="graph0" class="graph" transform="scale(1 1) rotate(0) translate(4 169.8)">
<title>dependencies</title>
<polygon fill="white" stroke="transparent" points="-4,4 -4,-169.8 821,-169.8 821,4 -4,4"/>
<text text-anchor="middle" x="408.5" y="-8.2" font-family="sans-serif" font-size="14.00">dependencies</text>
<g id="clust1" class="cluster">
<title>cluster_AppModule</title>
<polygon fill="none" stroke="black" stroke-dasharray="1,5" points="8,-32.8 8,-157.8 809,-157.8 809,-32.8 8,-32.8"/>
</g>
<g id="clust3" class="cluster">
<title>cluster_AppModule_imports</title>
<polygon fill="none" stroke="black" points="154,-40.8 154,-92.8 801,-92.8 801,-40.8 154,-40.8"/>
</g>
<g id="clust6" class="cluster">
<title>cluster_AppModule_providers</title>
<polygon fill="none" stroke="black" points="16,-40.8 16,-92.8 146,-92.8 146,-40.8 16,-40.8"/>
</g>
<!-- AuthModule -->
<g id="node1" class="node">
<title>AuthModule</title>
<polygon fill="#8dd3c7" stroke="black" points="792.55,-84.8 789.55,-88.8 768.55,-88.8 765.55,-84.8 705.45,-84.8 705.45,-48.8 792.55,-48.8 792.55,-84.8"/>
<text text-anchor="middle" x="749" y="-62.6" font-family="Times,serif" font-size="14.00">AuthModule</text>
</g>
<!-- AppModule -->
<g id="node6" class="node">
<title>AppModule</title>
<polygon fill="#8dd3c7" stroke="black" points="450.66,-149.8 447.66,-153.8 426.66,-153.8 423.66,-149.8 367.34,-149.8 367.34,-113.8 450.66,-113.8 450.66,-149.8"/>
<text text-anchor="middle" x="409" y="-127.6" font-family="Times,serif" font-size="14.00">AppModule</text>
</g>
<!-- AuthModule&#45;&gt;AppModule -->
<g id="edge1" class="edge">
<title>AuthModule&#45;&gt;AppModule</title>
<path fill="none" stroke="black" d="M749,-85.08C749,-106.12 749,-137.8 749,-137.8 749,-137.8 460.69,-137.8 460.69,-137.8"/>
<polygon fill="black" stroke="black" points="460.69,-134.3 450.69,-137.8 460.69,-141.3 460.69,-134.3"/>
</g>
<!-- CategoryModule -->
<g id="node2" class="node">
<title>CategoryModule</title>
<polygon fill="#8dd3c7" stroke="black" points="687.37,-84.8 684.37,-88.8 663.37,-88.8 660.37,-84.8 576.63,-84.8 576.63,-48.8 687.37,-48.8 687.37,-84.8"/>
<text text-anchor="middle" x="632" y="-62.6" font-family="Times,serif" font-size="14.00">CategoryModule</text>
</g>
<!-- CategoryModule&#45;&gt;AppModule -->
<g id="edge2" class="edge">
<title>CategoryModule&#45;&gt;AppModule</title>
<path fill="none" stroke="black" d="M632,-84.82C632,-102.17 632,-125.8 632,-125.8 632,-125.8 460.68,-125.8 460.68,-125.8"/>
<polygon fill="black" stroke="black" points="460.68,-122.3 450.68,-125.8 460.68,-129.3 460.68,-122.3"/>
</g>
<!-- DeliveryAddressModule -->
<g id="node3" class="node">
<title>DeliveryAddressModule</title>
<polygon fill="#8dd3c7" stroke="black" points="558.4,-84.8 555.4,-88.8 534.4,-88.8 531.4,-84.8 403.6,-84.8 403.6,-48.8 558.4,-48.8 558.4,-84.8"/>
<text text-anchor="middle" x="481" y="-62.6" font-family="Times,serif" font-size="14.00">DeliveryAddressModule</text>
</g>
<!-- DeliveryAddressModule&#45;&gt;AppModule -->
<g id="edge3" class="edge">
<title>DeliveryAddressModule&#45;&gt;AppModule</title>
<path fill="none" stroke="black" d="M427.31,-84.91C427.31,-84.91 427.31,-103.79 427.31,-103.79"/>
<polygon fill="black" stroke="black" points="423.81,-103.79 427.31,-113.79 430.81,-103.79 423.81,-103.79"/>
</g>
<!-- OrdersModule -->
<g id="node4" class="node">
<title>OrdersModule</title>
<polygon fill="#8dd3c7" stroke="black" points="385.64,-84.8 382.64,-88.8 361.64,-88.8 358.64,-84.8 288.36,-84.8 288.36,-48.8 385.64,-48.8 385.64,-84.8"/>
<text text-anchor="middle" x="337" y="-62.6" font-family="Times,serif" font-size="14.00">OrdersModule</text>
</g>
<!-- OrdersModule&#45;&gt;AppModule -->
<g id="edge4" class="edge">
<title>OrdersModule&#45;&gt;AppModule</title>
<path fill="none" stroke="black" d="M376.5,-84.91C376.5,-84.91 376.5,-103.79 376.5,-103.79"/>
<polygon fill="black" stroke="black" points="373,-103.79 376.5,-113.79 380,-103.79 373,-103.79"/>
</g>
<!-- ProductsModule -->
<g id="node5" class="node">
<title>ProductsModule</title>
<polygon fill="#8dd3c7" stroke="black" points="270.04,-84.8 267.04,-88.8 246.04,-88.8 243.04,-84.8 161.96,-84.8 161.96,-48.8 270.04,-48.8 270.04,-84.8"/>
<text text-anchor="middle" x="216" y="-62.6" font-family="Times,serif" font-size="14.00">ProductsModule</text>
</g>
<!-- ProductsModule&#45;&gt;AppModule -->
<g id="edge5" class="edge">
<title>ProductsModule&#45;&gt;AppModule</title>
<path fill="none" stroke="black" d="M216,-84.82C216,-102.17 216,-125.8 216,-125.8 216,-125.8 357.12,-125.8 357.12,-125.8"/>
<polygon fill="black" stroke="black" points="357.12,-129.3 367.12,-125.8 357.12,-122.3 357.12,-129.3"/>
</g>
<!-- AppService -->
<g id="node7" class="node">
<title>AppService</title>
<ellipse fill="#fdb462" stroke="black" cx="81" cy="-66.8" rx="56.74" ry="18"/>
<text text-anchor="middle" x="81" y="-62.6" font-family="Times,serif" font-size="14.00">AppService</text>
</g>
<!-- AppService&#45;&gt;AppModule -->
<g id="edge6" class="edge">
<title>AppService&#45;&gt;AppModule</title>
<path fill="none" stroke="black" d="M81,-85.08C81,-106.12 81,-137.8 81,-137.8 81,-137.8 357.13,-137.8 357.13,-137.8"/>
<polygon fill="black" stroke="black" points="357.13,-141.3 367.13,-137.8 357.13,-134.3 357.13,-141.3"/>
</g>
</g>
</svg>
